<mxfile host="app.diagrams.net" modified="2023-08-28T11:05:24.860Z" agent="Mozilla/5.0 (Macintosh; Intel Mac OS X 10_15_7) AppleWebKit/537.36 (KHTML, like Gecko) Chrome/116.0.0.0 Safari/537.36" etag="d3DQR0M25RZCrEFzUNts" version="21.6.9" type="github">
  <diagram name="overlay ibgp evpn" id="vQ_CZGtZjFFo7zD5n146">
    <mxGraphModel dx="314" dy="170" grid="0" gridSize="2" guides="1" tooltips="1" connect="1" arrows="1" fold="1" page="1" pageScale="1" pageWidth="827" pageHeight="1169" background="#4D5766" math="0" shadow="0">
      <root>
        <mxCell id="mwT0r1Xhh7UKhmQyr-0J-0" />
        <mxCell id="mwT0r1Xhh7UKhmQyr-0J-1" parent="mwT0r1Xhh7UKhmQyr-0J-0" />
        <mxCell id="mwT0r1Xhh7UKhmQyr-0J-66" value="&lt;font face=&quot;Fira Code&quot; data-font-src=&quot;https://fonts.googleapis.com/css?family=Fira+Code&quot;&gt;AS 64321&lt;/font&gt;" style="rounded=0;whiteSpace=wrap;html=1;dashed=1;fillColor=#4D5766;fontFamily=Manrope;fontSource=https%3A%2F%2Ffonts.googleapis.com%2Fcss%3Ffamily%3DManrope;fontSize=8;fontColor=#FFFFFF;strokeColor=none;rotation=-90;" parent="mwT0r1Xhh7UKhmQyr-0J-1" vertex="1">
          <mxGeometry x="531" y="415" width="33" height="8" as="geometry" />
        </mxCell>
        <mxCell id="97hnSNOYw0HHCOYGKAI5-13" value="&lt;div style=&quot;font-size: 7px;&quot;&gt;&lt;div style=&quot;text-align: left&quot;&gt;&lt;span style=&quot;color: rgb(255 , 255 , 255)&quot;&gt;RID&lt;/span&gt;&lt;span style=&quot;color: rgb(255 , 255 , 255)&quot;&gt;: 10.0.1.3&lt;/span&gt;&lt;/div&gt;&lt;/div&gt;" style="text;html=1;align=center;verticalAlign=middle;resizable=0;points=[];autosize=1;fontSize=8;fontFamily=Fira Code;fontColor=#001135;fontSource=https%3A%2F%2Ffonts.googleapis.com%2Fcss%3Ffamily%3DFira%2BCode;connectable=0;rotation=0;fillColor=#4D5766;opacity=60;spacing=-3;" parent="mwT0r1Xhh7UKhmQyr-0J-1" vertex="1">
          <mxGeometry x="499.5" y="432" width="63" height="10" as="geometry" />
        </mxCell>
        <mxCell id="mwT0r1Xhh7UKhmQyr-0J-44" value="" style="rounded=0;whiteSpace=wrap;html=1;fontFamily=Manrope;fontSize=8;fontSource=https%3A%2F%2Ffonts.googleapis.com%2Fcss%3Ffamily%3DManrope;connectable=0;allowArrows=0;fillColor=none;dashed=1;strokeColor=#001135;" parent="mwT0r1Xhh7UKhmQyr-0J-1" vertex="1">
          <mxGeometry x="499.5" y="397" width="60.5" height="46" as="geometry" />
        </mxCell>
        <mxCell id="mwT0r1Xhh7UKhmQyr-0J-51" value="" style="group" parent="mwT0r1Xhh7UKhmQyr-0J-1" vertex="1" connectable="0">
          <mxGeometry x="507.5" y="403" width="30" height="30" as="geometry" />
        </mxCell>
        <mxCell id="mwT0r1Xhh7UKhmQyr-0J-52" value="" style="whiteSpace=wrap;html=1;aspect=fixed;fillColor=#001135;strokeColor=none;connectable=1;allowArrows=1;fontFamily=Manrope;fontSource=https%3A%2F%2Ffonts.googleapis.com%2Fcss%3Ffamily%3DManrope;" parent="mwT0r1Xhh7UKhmQyr-0J-51" vertex="1">
          <mxGeometry width="30" height="30" as="geometry" />
        </mxCell>
        <mxCell id="mwT0r1Xhh7UKhmQyr-0J-53" value="" style="endArrow=open;html=1;edgeStyle=orthogonalEdgeStyle;rounded=0;endFill=0;startSize=6;endSize=2;strokeColor=#FFFFFF;fontFamily=Manrope;fontSource=https%3A%2F%2Ffonts.googleapis.com%2Fcss%3Ffamily%3DManrope;" parent="mwT0r1Xhh7UKhmQyr-0J-51" edge="1">
          <mxGeometry width="50" height="50" as="geometry">
            <mxPoint x="3" y="12" as="sourcePoint" />
            <mxPoint x="11" y="3" as="targetPoint" />
            <Array as="points">
              <mxPoint x="11" y="12" />
            </Array>
          </mxGeometry>
        </mxCell>
        <mxCell id="mwT0r1Xhh7UKhmQyr-0J-54" value="" style="endArrow=open;html=1;edgeStyle=orthogonalEdgeStyle;rounded=0;endFill=0;startSize=6;endSize=2;strokeColor=#FFFFFF;fontFamily=Manrope;fontSource=https%3A%2F%2Ffonts.googleapis.com%2Fcss%3Ffamily%3DManrope;" parent="mwT0r1Xhh7UKhmQyr-0J-51" edge="1">
          <mxGeometry width="50" height="50" as="geometry">
            <mxPoint x="11" y="27" as="sourcePoint" />
            <mxPoint x="3" y="19" as="targetPoint" />
            <Array as="points">
              <mxPoint x="11" y="19" />
            </Array>
          </mxGeometry>
        </mxCell>
        <mxCell id="mwT0r1Xhh7UKhmQyr-0J-55" value="" style="endArrow=open;html=1;edgeStyle=orthogonalEdgeStyle;rounded=0;endFill=0;startSize=6;endSize=2;strokeColor=#FFFFFF;fontFamily=Manrope;fontSource=https%3A%2F%2Ffonts.googleapis.com%2Fcss%3Ffamily%3DManrope;" parent="mwT0r1Xhh7UKhmQyr-0J-51" edge="1">
          <mxGeometry width="50" height="50" as="geometry">
            <mxPoint x="18" y="3" as="sourcePoint" />
            <mxPoint x="27" y="12" as="targetPoint" />
            <Array as="points">
              <mxPoint x="18" y="12" />
            </Array>
          </mxGeometry>
        </mxCell>
        <mxCell id="mwT0r1Xhh7UKhmQyr-0J-56" value="" style="endArrow=open;html=1;edgeStyle=orthogonalEdgeStyle;rounded=0;endFill=0;startSize=6;endSize=2;strokeColor=#FFFFFF;fontFamily=Manrope;fontSource=https%3A%2F%2Ffonts.googleapis.com%2Fcss%3Ffamily%3DManrope;" parent="mwT0r1Xhh7UKhmQyr-0J-51" edge="1">
          <mxGeometry width="50" height="50" as="geometry">
            <mxPoint x="27" y="19" as="sourcePoint" />
            <mxPoint x="18" y="27" as="targetPoint" />
            <Array as="points">
              <mxPoint x="18" y="19" />
            </Array>
          </mxGeometry>
        </mxCell>
        <mxCell id="97hnSNOYw0HHCOYGKAI5-4" value="" style="ellipse;whiteSpace=wrap;html=1;" parent="mwT0r1Xhh7UKhmQyr-0J-51" vertex="1">
          <mxGeometry x="13" y="13" width="4" height="4" as="geometry" />
        </mxCell>
        <mxCell id="mwT0r1Xhh7UKhmQyr-0J-15" value="" style="group;fontFamily=Manrope;fontSource=https%3A%2F%2Ffonts.googleapis.com%2Fcss%3Ffamily%3DManrope;" parent="mwT0r1Xhh7UKhmQyr-0J-1" vertex="1" connectable="0">
          <mxGeometry x="413" y="403" width="55" height="38" as="geometry" />
        </mxCell>
        <mxCell id="97hnSNOYw0HHCOYGKAI5-7" value="&lt;div style=&quot;font-size: 7px;&quot;&gt;&lt;div style=&quot;text-align: left&quot;&gt;&lt;span style=&quot;color: rgb(255 , 255 , 255)&quot;&gt;RID&lt;/span&gt;&lt;span style=&quot;color: rgb(255 , 255 , 255)&quot;&gt;: 10.0.1.2&lt;/span&gt;&lt;/div&gt;&lt;/div&gt;" style="text;html=1;align=center;verticalAlign=middle;resizable=0;points=[];autosize=1;fontSize=8;fontFamily=Fira Code;fontColor=#001135;fontSource=https%3A%2F%2Ffonts.googleapis.com%2Fcss%3Ffamily%3DFira%2BCode;connectable=0;rotation=0;fillColor=#4D5766;opacity=60;spacing=-3;" parent="mwT0r1Xhh7UKhmQyr-0J-15" vertex="1">
          <mxGeometry x="-8" y="29" width="63" height="10" as="geometry" />
        </mxCell>
        <mxCell id="mwT0r1Xhh7UKhmQyr-0J-16" value="" style="whiteSpace=wrap;html=1;aspect=fixed;fillColor=#001135;strokeColor=none;connectable=1;allowArrows=1;fontFamily=Manrope;fontSource=https%3A%2F%2Ffonts.googleapis.com%2Fcss%3Ffamily%3DManrope;" parent="mwT0r1Xhh7UKhmQyr-0J-15" vertex="1">
          <mxGeometry width="30" height="30" as="geometry" />
        </mxCell>
        <mxCell id="mwT0r1Xhh7UKhmQyr-0J-17" value="" style="endArrow=open;html=1;edgeStyle=orthogonalEdgeStyle;rounded=0;endFill=0;startSize=6;endSize=2;strokeColor=#FFFFFF;fontFamily=Manrope;fontSource=https%3A%2F%2Ffonts.googleapis.com%2Fcss%3Ffamily%3DManrope;" parent="mwT0r1Xhh7UKhmQyr-0J-15" edge="1">
          <mxGeometry width="50" height="50" relative="1" as="geometry">
            <mxPoint x="3" y="12" as="sourcePoint" />
            <mxPoint x="11" y="3" as="targetPoint" />
            <Array as="points">
              <mxPoint x="11" y="12" />
            </Array>
          </mxGeometry>
        </mxCell>
        <mxCell id="mwT0r1Xhh7UKhmQyr-0J-18" value="" style="endArrow=open;html=1;edgeStyle=orthogonalEdgeStyle;rounded=0;endFill=0;startSize=6;endSize=2;strokeColor=#FFFFFF;fontFamily=Manrope;fontSource=https%3A%2F%2Ffonts.googleapis.com%2Fcss%3Ffamily%3DManrope;" parent="mwT0r1Xhh7UKhmQyr-0J-15" edge="1">
          <mxGeometry width="50" height="50" relative="1" as="geometry">
            <mxPoint x="11" y="27" as="sourcePoint" />
            <mxPoint x="3" y="19" as="targetPoint" />
            <Array as="points">
              <mxPoint x="11" y="19" />
            </Array>
          </mxGeometry>
        </mxCell>
        <mxCell id="mwT0r1Xhh7UKhmQyr-0J-19" value="" style="endArrow=open;html=1;edgeStyle=orthogonalEdgeStyle;rounded=0;endFill=0;startSize=6;endSize=2;strokeColor=#FFFFFF;fontFamily=Manrope;fontSource=https%3A%2F%2Ffonts.googleapis.com%2Fcss%3Ffamily%3DManrope;" parent="mwT0r1Xhh7UKhmQyr-0J-15" edge="1">
          <mxGeometry width="50" height="50" relative="1" as="geometry">
            <mxPoint x="18" y="3" as="sourcePoint" />
            <mxPoint x="27" y="12" as="targetPoint" />
            <Array as="points">
              <mxPoint x="18" y="12" />
            </Array>
          </mxGeometry>
        </mxCell>
        <mxCell id="mwT0r1Xhh7UKhmQyr-0J-20" value="" style="endArrow=open;html=1;edgeStyle=orthogonalEdgeStyle;rounded=0;endFill=0;startSize=6;endSize=2;strokeColor=#FFFFFF;fontFamily=Manrope;fontSource=https%3A%2F%2Ffonts.googleapis.com%2Fcss%3Ffamily%3DManrope;" parent="mwT0r1Xhh7UKhmQyr-0J-15" edge="1">
          <mxGeometry width="50" height="50" relative="1" as="geometry">
            <mxPoint x="27" y="19" as="sourcePoint" />
            <mxPoint x="18" y="27" as="targetPoint" />
            <Array as="points">
              <mxPoint x="18" y="19" />
            </Array>
          </mxGeometry>
        </mxCell>
        <mxCell id="97hnSNOYw0HHCOYGKAI5-3" value="" style="ellipse;whiteSpace=wrap;html=1;" parent="mwT0r1Xhh7UKhmQyr-0J-15" vertex="1">
          <mxGeometry x="13" y="13" width="4" height="4" as="geometry" />
        </mxCell>
        <mxCell id="mwT0r1Xhh7UKhmQyr-0J-21" value="" style="group" parent="mwT0r1Xhh7UKhmQyr-0J-1" vertex="1" connectable="0">
          <mxGeometry x="302" y="403" width="64" height="42" as="geometry" />
        </mxCell>
        <mxCell id="mwT0r1Xhh7UKhmQyr-0J-22" value="" style="whiteSpace=wrap;html=1;aspect=fixed;fillColor=#001135;strokeColor=none;connectable=1;allowArrows=1;fontFamily=Manrope;fontSource=https%3A%2F%2Ffonts.googleapis.com%2Fcss%3Ffamily%3DManrope;" parent="mwT0r1Xhh7UKhmQyr-0J-21" vertex="1">
          <mxGeometry width="30" height="30" as="geometry" />
        </mxCell>
        <mxCell id="mwT0r1Xhh7UKhmQyr-0J-63" value="&lt;div style=&quot;font-size: 7px;&quot;&gt;&lt;div style=&quot;text-align: left&quot;&gt;&lt;span style=&quot;color: rgb(255 , 255 , 255)&quot;&gt;RID&lt;/span&gt;&lt;span style=&quot;color: rgb(255 , 255 , 255)&quot;&gt;: 10.0.1.1&lt;/span&gt;&lt;/div&gt;&lt;/div&gt;" style="text;html=1;align=center;verticalAlign=middle;resizable=0;points=[];autosize=1;fontSize=8;fontFamily=Fira Code;fontColor=#001135;fontSource=https%3A%2F%2Ffonts.googleapis.com%2Fcss%3Ffamily%3DFira%2BCode;connectable=0;rotation=0;fillColor=#4D5766;opacity=60;spacing=-3;" parent="mwT0r1Xhh7UKhmQyr-0J-21" vertex="1">
          <mxGeometry x="-4" y="29" width="63" height="10" as="geometry" />
        </mxCell>
        <mxCell id="mwT0r1Xhh7UKhmQyr-0J-23" value="" style="endArrow=open;html=1;edgeStyle=orthogonalEdgeStyle;rounded=0;endFill=0;startSize=6;endSize=2;strokeColor=#FFFFFF;fontFamily=Manrope;fontSource=https%3A%2F%2Ffonts.googleapis.com%2Fcss%3Ffamily%3DManrope;" parent="mwT0r1Xhh7UKhmQyr-0J-21" edge="1">
          <mxGeometry width="50" height="50" as="geometry">
            <mxPoint x="3" y="12" as="sourcePoint" />
            <mxPoint x="11" y="3" as="targetPoint" />
            <Array as="points">
              <mxPoint x="11" y="12" />
            </Array>
          </mxGeometry>
        </mxCell>
        <mxCell id="mwT0r1Xhh7UKhmQyr-0J-24" value="" style="endArrow=open;html=1;edgeStyle=orthogonalEdgeStyle;rounded=0;endFill=0;startSize=6;endSize=2;strokeColor=#FFFFFF;fontFamily=Manrope;fontSource=https%3A%2F%2Ffonts.googleapis.com%2Fcss%3Ffamily%3DManrope;" parent="mwT0r1Xhh7UKhmQyr-0J-21" edge="1">
          <mxGeometry width="50" height="50" as="geometry">
            <mxPoint x="11" y="27" as="sourcePoint" />
            <mxPoint x="3" y="19" as="targetPoint" />
            <Array as="points">
              <mxPoint x="11" y="19" />
            </Array>
          </mxGeometry>
        </mxCell>
        <mxCell id="mwT0r1Xhh7UKhmQyr-0J-25" value="" style="endArrow=open;html=1;edgeStyle=orthogonalEdgeStyle;rounded=0;endFill=0;startSize=6;endSize=2;strokeColor=#FFFFFF;fontFamily=Manrope;fontSource=https%3A%2F%2Ffonts.googleapis.com%2Fcss%3Ffamily%3DManrope;" parent="mwT0r1Xhh7UKhmQyr-0J-21" edge="1">
          <mxGeometry width="50" height="50" as="geometry">
            <mxPoint x="18" y="3" as="sourcePoint" />
            <mxPoint x="27" y="12" as="targetPoint" />
            <Array as="points">
              <mxPoint x="18" y="12" />
            </Array>
          </mxGeometry>
        </mxCell>
        <mxCell id="mwT0r1Xhh7UKhmQyr-0J-26" value="" style="endArrow=open;html=1;edgeStyle=orthogonalEdgeStyle;rounded=0;endFill=0;startSize=6;endSize=2;strokeColor=#FFFFFF;fontFamily=Manrope;fontSource=https%3A%2F%2Ffonts.googleapis.com%2Fcss%3Ffamily%3DManrope;" parent="mwT0r1Xhh7UKhmQyr-0J-21" edge="1">
          <mxGeometry width="50" height="50" as="geometry">
            <mxPoint x="27" y="19" as="sourcePoint" />
            <mxPoint x="18" y="27" as="targetPoint" />
            <Array as="points">
              <mxPoint x="18" y="19" />
            </Array>
          </mxGeometry>
        </mxCell>
        <mxCell id="97hnSNOYw0HHCOYGKAI5-1" value="" style="ellipse;whiteSpace=wrap;html=1;" parent="mwT0r1Xhh7UKhmQyr-0J-21" vertex="1">
          <mxGeometry x="13" y="13" width="4" height="4" as="geometry" />
        </mxCell>
        <mxCell id="mwT0r1Xhh7UKhmQyr-0J-41" value="&lt;div style=&quot;text-align: left ; font-size: 8px&quot;&gt;&lt;span style=&quot;color: rgb(255 , 255 , 255)&quot;&gt;RID&lt;/span&gt;&lt;span style=&quot;color: rgb(255 , 255 , 255)&quot;&gt;: 10.1.0.2&lt;/span&gt;&lt;/div&gt;" style="text;html=1;align=center;verticalAlign=middle;resizable=0;points=[];autosize=1;fontSize=8;fontFamily=Fira Code;fontColor=#001135;fontSource=https%3A%2F%2Ffonts.googleapis.com%2Fcss%3Ffamily%3DFira%2BCode;connectable=0;rotation=0;fillColor=#4D5766;opacity=60;" parent="mwT0r1Xhh7UKhmQyr-0J-1" vertex="1">
          <mxGeometry x="491" y="245" width="80" height="22" as="geometry" />
        </mxCell>
        <mxCell id="mwT0r1Xhh7UKhmQyr-0J-31" value="&lt;div style=&quot;text-align: left ; font-size: 8px&quot;&gt;&lt;span style=&quot;color: rgb(255 , 255 , 255)&quot;&gt;RID&lt;/span&gt;&lt;span style=&quot;color: rgb(255 , 255 , 255)&quot;&gt;: 10.1.0.1&lt;/span&gt;&lt;/div&gt;" style="text;html=1;align=center;verticalAlign=middle;resizable=0;points=[];autosize=1;fontSize=8;fontFamily=Fira Code;fontColor=#001135;fontSource=https%3A%2F%2Ffonts.googleapis.com%2Fcss%3Ffamily%3DFira%2BCode;connectable=0;rotation=0;fillColor=#4D5766;opacity=60;" parent="mwT0r1Xhh7UKhmQyr-0J-1" vertex="1">
          <mxGeometry x="395" y="246" width="80" height="22" as="geometry" />
        </mxCell>
        <mxCell id="97hnSNOYw0HHCOYGKAI5-14" value="&lt;div style=&quot;font-size: 7px;&quot;&gt;&lt;div style=&quot;text-align: left&quot;&gt;&lt;span style=&quot;color: rgb(255 , 255 , 255)&quot;&gt;RID&lt;/span&gt;&lt;span style=&quot;color: rgb(255 , 255 , 255)&quot;&gt;: 10.0.1.4&lt;/span&gt;&lt;/div&gt;&lt;/div&gt;" style="text;html=1;align=center;verticalAlign=middle;resizable=0;points=[];autosize=1;fontSize=8;fontFamily=Fira Code;fontColor=#001135;fontSource=https%3A%2F%2Ffonts.googleapis.com%2Fcss%3Ffamily%3DFira%2BCode;connectable=0;rotation=0;fillColor=#4D5766;opacity=60;spacing=-3;" parent="mwT0r1Xhh7UKhmQyr-0J-1" vertex="1">
          <mxGeometry x="610.5" y="432" width="63" height="10" as="geometry" />
        </mxCell>
        <mxCell id="mwT0r1Xhh7UKhmQyr-0J-2" style="rounded=0;orthogonalLoop=1;jettySize=auto;html=1;exitX=0.5;exitY=0;exitDx=0;exitDy=0;entryX=0.5;entryY=1;entryDx=0;entryDy=0;startSize=6;endArrow=none;endFill=0;endSize=2;fontFamily=Manrope;fontSize=8;strokeColor=#98A2AE;fontSource=https%3A%2F%2Ffonts.googleapis.com%2Fcss%3Ffamily%3DManrope;opacity=40;" parent="mwT0r1Xhh7UKhmQyr-0J-1" source="mwT0r1Xhh7UKhmQyr-0J-16" target="mwT0r1Xhh7UKhmQyr-0J-34" edge="1">
          <mxGeometry relative="1" as="geometry">
            <mxPoint x="484" y="427" as="sourcePoint" />
            <mxPoint x="484" y="326" as="targetPoint" />
          </mxGeometry>
        </mxCell>
        <mxCell id="mwT0r1Xhh7UKhmQyr-0J-3" value="" style="rounded=0;whiteSpace=wrap;html=1;fontFamily=Manrope;fontSize=8;fontSource=https%3A%2F%2Ffonts.googleapis.com%2Fcss%3Ffamily%3DManrope;connectable=0;allowArrows=0;fillColor=none;dashed=1;strokeColor=#001135;" parent="mwT0r1Xhh7UKhmQyr-0J-1" vertex="1">
          <mxGeometry x="407" y="397" width="58" height="46" as="geometry" />
        </mxCell>
        <mxCell id="mwT0r1Xhh7UKhmQyr-0J-4" value="" style="rounded=0;whiteSpace=wrap;html=1;fontFamily=Manrope;fontSize=8;fontSource=https%3A%2F%2Ffonts.googleapis.com%2Fcss%3Ffamily%3DManrope;connectable=0;allowArrows=0;fillColor=none;dashed=1;strokeColor=#001135;" parent="mwT0r1Xhh7UKhmQyr-0J-1" vertex="1">
          <mxGeometry x="407" y="265" width="57" height="44" as="geometry" />
        </mxCell>
        <mxCell id="mwT0r1Xhh7UKhmQyr-0J-5" style="rounded=0;orthogonalLoop=1;jettySize=auto;html=1;exitX=0.5;exitY=0;exitDx=0;exitDy=0;startSize=6;endArrow=none;endFill=0;endSize=2;fontFamily=Manrope;fontSize=8;strokeColor=#98A2AE;fontSource=https%3A%2F%2Ffonts.googleapis.com%2Fcss%3Ffamily%3DManrope;entryX=0.5;entryY=1;entryDx=0;entryDy=0;opacity=40;" parent="mwT0r1Xhh7UKhmQyr-0J-1" source="mwT0r1Xhh7UKhmQyr-0J-22" target="mwT0r1Xhh7UKhmQyr-0J-7" edge="1">
          <mxGeometry relative="1" as="geometry">
            <mxPoint x="317" y="326" as="sourcePoint" />
            <mxPoint x="354" y="302" as="targetPoint" />
          </mxGeometry>
        </mxCell>
        <mxCell id="mwT0r1Xhh7UKhmQyr-0J-6" value="" style="group;fontFamily=Manrope;fontSource=https%3A%2F%2Ffonts.googleapis.com%2Fcss%3Ffamily%3DManrope;" parent="mwT0r1Xhh7UKhmQyr-0J-1" vertex="1" connectable="0">
          <mxGeometry x="413" y="272" width="30" height="30" as="geometry" />
        </mxCell>
        <mxCell id="mwT0r1Xhh7UKhmQyr-0J-7" value="" style="whiteSpace=wrap;html=1;aspect=fixed;fillColor=#001135;strokeColor=none;connectable=1;allowArrows=1;fontFamily=Manrope;fontSource=https%3A%2F%2Ffonts.googleapis.com%2Fcss%3Ffamily%3DManrope;" parent="mwT0r1Xhh7UKhmQyr-0J-6" vertex="1">
          <mxGeometry width="30" height="30" as="geometry" />
        </mxCell>
        <mxCell id="mwT0r1Xhh7UKhmQyr-0J-8" value="" style="endArrow=open;html=1;edgeStyle=orthogonalEdgeStyle;rounded=0;endFill=0;startSize=6;endSize=2;strokeColor=#FFFFFF;fontFamily=Manrope;fontSource=https%3A%2F%2Ffonts.googleapis.com%2Fcss%3Ffamily%3DManrope;" parent="mwT0r1Xhh7UKhmQyr-0J-6" edge="1">
          <mxGeometry width="50" height="50" relative="1" as="geometry">
            <mxPoint x="3" y="12" as="sourcePoint" />
            <mxPoint x="11" y="3" as="targetPoint" />
            <Array as="points">
              <mxPoint x="11" y="12" />
            </Array>
          </mxGeometry>
        </mxCell>
        <mxCell id="mwT0r1Xhh7UKhmQyr-0J-9" value="" style="endArrow=open;html=1;edgeStyle=orthogonalEdgeStyle;rounded=0;endFill=0;startSize=6;endSize=2;strokeColor=#FFFFFF;fontFamily=Manrope;fontSource=https%3A%2F%2Ffonts.googleapis.com%2Fcss%3Ffamily%3DManrope;" parent="mwT0r1Xhh7UKhmQyr-0J-6" edge="1">
          <mxGeometry width="50" height="50" relative="1" as="geometry">
            <mxPoint x="11" y="27" as="sourcePoint" />
            <mxPoint x="3" y="19" as="targetPoint" />
            <Array as="points">
              <mxPoint x="11" y="19" />
            </Array>
          </mxGeometry>
        </mxCell>
        <mxCell id="mwT0r1Xhh7UKhmQyr-0J-10" value="" style="endArrow=open;html=1;edgeStyle=orthogonalEdgeStyle;rounded=0;endFill=0;startSize=6;endSize=2;strokeColor=#FFFFFF;fontFamily=Manrope;fontSource=https%3A%2F%2Ffonts.googleapis.com%2Fcss%3Ffamily%3DManrope;" parent="mwT0r1Xhh7UKhmQyr-0J-6" edge="1">
          <mxGeometry width="50" height="50" relative="1" as="geometry">
            <mxPoint x="18" y="3" as="sourcePoint" />
            <mxPoint x="27" y="12" as="targetPoint" />
            <Array as="points">
              <mxPoint x="18" y="12" />
            </Array>
          </mxGeometry>
        </mxCell>
        <mxCell id="mwT0r1Xhh7UKhmQyr-0J-11" value="" style="endArrow=open;html=1;edgeStyle=orthogonalEdgeStyle;rounded=0;endFill=0;startSize=6;endSize=2;strokeColor=#FFFFFF;fontFamily=Manrope;fontSource=https%3A%2F%2Ffonts.googleapis.com%2Fcss%3Ffamily%3DManrope;" parent="mwT0r1Xhh7UKhmQyr-0J-6" edge="1">
          <mxGeometry width="50" height="50" relative="1" as="geometry">
            <mxPoint x="27" y="19" as="sourcePoint" />
            <mxPoint x="18" y="27" as="targetPoint" />
            <Array as="points">
              <mxPoint x="18" y="19" />
            </Array>
          </mxGeometry>
        </mxCell>
        <mxCell id="97hnSNOYw0HHCOYGKAI5-0" value="" style="ellipse;whiteSpace=wrap;html=1;" parent="mwT0r1Xhh7UKhmQyr-0J-6" vertex="1">
          <mxGeometry x="13" y="13" width="4" height="4" as="geometry" />
        </mxCell>
        <mxCell id="mwT0r1Xhh7UKhmQyr-0J-12" style="rounded=0;orthogonalLoop=1;jettySize=auto;html=1;exitX=0.5;exitY=0;exitDx=0;exitDy=0;entryX=0.5;entryY=1;entryDx=0;entryDy=0;startSize=6;endArrow=none;endFill=0;endSize=2;fontFamily=Manrope;fontSize=8;strokeColor=#98A2AE;fontSource=https%3A%2F%2Ffonts.googleapis.com%2Fcss%3Ffamily%3DManrope;opacity=40;" parent="mwT0r1Xhh7UKhmQyr-0J-1" source="mwT0r1Xhh7UKhmQyr-0J-16" target="mwT0r1Xhh7UKhmQyr-0J-7" edge="1">
          <mxGeometry relative="1" as="geometry">
            <mxPoint x="319" y="328" as="sourcePoint" />
            <mxPoint x="341" y="304" as="targetPoint" />
          </mxGeometry>
        </mxCell>
        <mxCell id="mwT0r1Xhh7UKhmQyr-0J-13" value="&lt;font&gt;leaf1&lt;br&gt;&lt;font style=&quot;font-size: 8px&quot; color=&quot;#bec8d2&quot;&gt;IXR-D2L&lt;/font&gt;&lt;br&gt;&lt;/font&gt;" style="text;html=1;align=center;verticalAlign=middle;resizable=0;points=[];autosize=1;fontSize=10;fontFamily=Manrope;fontStyle=0;fontColor=#FFFFFF;" parent="mwT0r1Xhh7UKhmQyr-0J-1" vertex="1">
          <mxGeometry x="295" y="440" width="47" height="36" as="geometry" />
        </mxCell>
        <mxCell id="mwT0r1Xhh7UKhmQyr-0J-14" value="" style="rounded=0;whiteSpace=wrap;html=1;fontFamily=Manrope;fontSize=8;fontSource=https%3A%2F%2Ffonts.googleapis.com%2Fcss%3Ffamily%3DManrope;connectable=0;allowArrows=0;fillColor=none;dashed=1;strokeColor=#001135;" parent="mwT0r1Xhh7UKhmQyr-0J-1" vertex="1">
          <mxGeometry x="297" y="397" width="63" height="46" as="geometry" />
        </mxCell>
        <mxCell id="mwT0r1Xhh7UKhmQyr-0J-27" value="&lt;font face=&quot;Fira Code&quot; data-font-src=&quot;https://fonts.googleapis.com/css?family=Fira+Code&quot;&gt;AS 64321&lt;/font&gt;" style="rounded=0;whiteSpace=wrap;html=1;dashed=1;fillColor=#4D5766;fontFamily=Manrope;fontSource=https%3A%2F%2Ffonts.googleapis.com%2Fcss%3Ffamily%3DManrope;fontSize=8;fontColor=#FFFFFF;strokeColor=none;rotation=-90;" parent="mwT0r1Xhh7UKhmQyr-0J-1" vertex="1">
          <mxGeometry x="325" y="414" width="33" height="8" as="geometry" />
        </mxCell>
        <mxCell id="mwT0r1Xhh7UKhmQyr-0J-28" value="&lt;font face=&quot;Fira Code&quot; data-font-src=&quot;https://fonts.googleapis.com/css?family=Fira+Code&quot;&gt;AS 64321&lt;/font&gt;" style="rounded=0;whiteSpace=wrap;html=1;dashed=1;fillColor=#4D5766;fontFamily=Manrope;fontSource=https%3A%2F%2Ffonts.googleapis.com%2Fcss%3Ffamily%3DManrope;fontSize=8;fontColor=#FFFFFF;strokeColor=none;rotation=-90;" parent="mwT0r1Xhh7UKhmQyr-0J-1" vertex="1">
          <mxGeometry x="435" y="282" width="33" height="8" as="geometry" />
        </mxCell>
        <mxCell id="mwT0r1Xhh7UKhmQyr-0J-29" value="&lt;font&gt;leaf2&lt;br&gt;&lt;font style=&quot;font-size: 8px&quot; color=&quot;#bec8d2&quot;&gt;IXR-D2L&lt;/font&gt;&lt;br&gt;&lt;/font&gt;" style="text;html=1;align=center;verticalAlign=middle;resizable=0;points=[];autosize=1;fontSize=10;fontFamily=Manrope;fontStyle=0;fontColor=#FFFFFF;" parent="mwT0r1Xhh7UKhmQyr-0J-1" vertex="1">
          <mxGeometry x="405" y="440" width="47" height="36" as="geometry" />
        </mxCell>
        <mxCell id="mwT0r1Xhh7UKhmQyr-0J-30" value="&lt;font&gt;spine1&lt;br&gt;&lt;span style=&quot;color: rgb(190 , 200 , 210)&quot;&gt;&lt;font style=&quot;font-size: 8px&quot;&gt;IXR-D3L&lt;/font&gt;&lt;/span&gt;&lt;br&gt;&lt;/font&gt;" style="text;html=1;align=center;verticalAlign=middle;resizable=0;points=[];autosize=1;fontSize=10;fontFamily=Manrope;fontStyle=0;fontColor=#FFFFFF;connectable=0;" parent="mwT0r1Xhh7UKhmQyr-0J-1" vertex="1">
          <mxGeometry x="360" y="270" width="47" height="36" as="geometry" />
        </mxCell>
        <mxCell id="mwT0r1Xhh7UKhmQyr-0J-32" value="" style="rounded=0;whiteSpace=wrap;html=1;fontFamily=Manrope;fontSize=8;fontSource=https%3A%2F%2Ffonts.googleapis.com%2Fcss%3Ffamily%3DManrope;connectable=0;allowArrows=0;fillColor=none;dashed=1;strokeColor=#001135;" parent="mwT0r1Xhh7UKhmQyr-0J-1" vertex="1">
          <mxGeometry x="503" y="265" width="57" height="44" as="geometry" />
        </mxCell>
        <mxCell id="mwT0r1Xhh7UKhmQyr-0J-33" value="" style="group;fontFamily=Manrope;fontSource=https%3A%2F%2Ffonts.googleapis.com%2Fcss%3Ffamily%3DManrope;" parent="mwT0r1Xhh7UKhmQyr-0J-1" vertex="1" connectable="0">
          <mxGeometry x="509" y="272" width="30" height="30" as="geometry" />
        </mxCell>
        <mxCell id="mwT0r1Xhh7UKhmQyr-0J-34" value="" style="whiteSpace=wrap;html=1;aspect=fixed;fillColor=#001135;strokeColor=none;connectable=1;allowArrows=1;fontFamily=Manrope;fontSource=https%3A%2F%2Ffonts.googleapis.com%2Fcss%3Ffamily%3DManrope;" parent="mwT0r1Xhh7UKhmQyr-0J-33" vertex="1">
          <mxGeometry width="30" height="30" as="geometry" />
        </mxCell>
        <mxCell id="mwT0r1Xhh7UKhmQyr-0J-35" value="" style="endArrow=open;html=1;edgeStyle=orthogonalEdgeStyle;rounded=0;endFill=0;startSize=6;endSize=2;strokeColor=#FFFFFF;fontFamily=Manrope;fontSource=https%3A%2F%2Ffonts.googleapis.com%2Fcss%3Ffamily%3DManrope;" parent="mwT0r1Xhh7UKhmQyr-0J-33" edge="1">
          <mxGeometry width="50" height="50" relative="1" as="geometry">
            <mxPoint x="3" y="12" as="sourcePoint" />
            <mxPoint x="11" y="3" as="targetPoint" />
            <Array as="points">
              <mxPoint x="11" y="12" />
            </Array>
          </mxGeometry>
        </mxCell>
        <mxCell id="mwT0r1Xhh7UKhmQyr-0J-36" value="" style="endArrow=open;html=1;edgeStyle=orthogonalEdgeStyle;rounded=0;endFill=0;startSize=6;endSize=2;strokeColor=#FFFFFF;fontFamily=Manrope;fontSource=https%3A%2F%2Ffonts.googleapis.com%2Fcss%3Ffamily%3DManrope;" parent="mwT0r1Xhh7UKhmQyr-0J-33" edge="1">
          <mxGeometry width="50" height="50" relative="1" as="geometry">
            <mxPoint x="11" y="27" as="sourcePoint" />
            <mxPoint x="3" y="19" as="targetPoint" />
            <Array as="points">
              <mxPoint x="11" y="19" />
            </Array>
          </mxGeometry>
        </mxCell>
        <mxCell id="mwT0r1Xhh7UKhmQyr-0J-37" value="" style="endArrow=open;html=1;edgeStyle=orthogonalEdgeStyle;rounded=0;endFill=0;startSize=6;endSize=2;strokeColor=#FFFFFF;fontFamily=Manrope;fontSource=https%3A%2F%2Ffonts.googleapis.com%2Fcss%3Ffamily%3DManrope;" parent="mwT0r1Xhh7UKhmQyr-0J-33" edge="1">
          <mxGeometry width="50" height="50" relative="1" as="geometry">
            <mxPoint x="18" y="3" as="sourcePoint" />
            <mxPoint x="27" y="12" as="targetPoint" />
            <Array as="points">
              <mxPoint x="18" y="12" />
            </Array>
          </mxGeometry>
        </mxCell>
        <mxCell id="mwT0r1Xhh7UKhmQyr-0J-38" value="" style="endArrow=open;html=1;edgeStyle=orthogonalEdgeStyle;rounded=0;endFill=0;startSize=6;endSize=2;strokeColor=#FFFFFF;fontFamily=Manrope;fontSource=https%3A%2F%2Ffonts.googleapis.com%2Fcss%3Ffamily%3DManrope;" parent="mwT0r1Xhh7UKhmQyr-0J-33" edge="1">
          <mxGeometry width="50" height="50" relative="1" as="geometry">
            <mxPoint x="27" y="19" as="sourcePoint" />
            <mxPoint x="18" y="27" as="targetPoint" />
            <Array as="points">
              <mxPoint x="18" y="19" />
            </Array>
          </mxGeometry>
        </mxCell>
        <mxCell id="97hnSNOYw0HHCOYGKAI5-6" value="" style="ellipse;whiteSpace=wrap;html=1;" parent="mwT0r1Xhh7UKhmQyr-0J-33" vertex="1">
          <mxGeometry x="13" y="13" width="4" height="4" as="geometry" />
        </mxCell>
        <mxCell id="mwT0r1Xhh7UKhmQyr-0J-39" value="&lt;font face=&quot;Fira Code&quot; data-font-src=&quot;https://fonts.googleapis.com/css?family=Fira+Code&quot;&gt;AS 64321&lt;/font&gt;" style="rounded=0;whiteSpace=wrap;html=1;dashed=1;fillColor=#4D5766;fontFamily=Manrope;fontSource=https%3A%2F%2Ffonts.googleapis.com%2Fcss%3Ffamily%3DManrope;fontSize=8;fontColor=#FFFFFF;strokeColor=none;rotation=-90;" parent="mwT0r1Xhh7UKhmQyr-0J-1" vertex="1">
          <mxGeometry x="531" y="282" width="33" height="8" as="geometry" />
        </mxCell>
        <mxCell id="mwT0r1Xhh7UKhmQyr-0J-40" value="&lt;font&gt;spine2&lt;br&gt;&lt;span style=&quot;color: rgb(190 , 200 , 210)&quot;&gt;&lt;font style=&quot;font-size: 8px&quot;&gt;IXR-D3L&lt;/font&gt;&lt;/span&gt;&lt;br&gt;&lt;/font&gt;" style="text;html=1;align=center;verticalAlign=middle;resizable=0;points=[];autosize=1;fontSize=10;fontFamily=Manrope;fontStyle=0;fontColor=#FFFFFF;connectable=0;" parent="mwT0r1Xhh7UKhmQyr-0J-1" vertex="1">
          <mxGeometry x="556" y="269.5" width="49" height="36" as="geometry" />
        </mxCell>
        <mxCell id="mwT0r1Xhh7UKhmQyr-0J-42" value="" style="rounded=0;whiteSpace=wrap;html=1;fontFamily=Manrope;fontSize=8;fontSource=https%3A%2F%2Ffonts.googleapis.com%2Fcss%3Ffamily%3DManrope;connectable=0;allowArrows=0;fillColor=none;dashed=1;strokeColor=#001135;" parent="mwT0r1Xhh7UKhmQyr-0J-1" vertex="1">
          <mxGeometry x="612" y="397" width="59" height="46" as="geometry" />
        </mxCell>
        <mxCell id="mwT0r1Xhh7UKhmQyr-0J-43" value="&lt;font&gt;leaf3&lt;br&gt;&lt;font style=&quot;font-size: 8px&quot; color=&quot;#bec8d2&quot;&gt;IXR-D2L&lt;/font&gt;&lt;br&gt;&lt;/font&gt;" style="text;html=1;align=center;verticalAlign=middle;resizable=0;points=[];autosize=1;fontSize=10;fontFamily=Manrope;fontStyle=0;fontColor=#FFFFFF;" parent="mwT0r1Xhh7UKhmQyr-0J-1" vertex="1">
          <mxGeometry x="500.5" y="440" width="47" height="36" as="geometry" />
        </mxCell>
        <mxCell id="mwT0r1Xhh7UKhmQyr-0J-45" value="" style="group;fontFamily=Manrope;fontSource=https%3A%2F%2Ffonts.googleapis.com%2Fcss%3Ffamily%3DManrope;" parent="mwT0r1Xhh7UKhmQyr-0J-1" vertex="1" connectable="0">
          <mxGeometry x="618.5" y="403" width="30" height="30" as="geometry" />
        </mxCell>
        <mxCell id="mwT0r1Xhh7UKhmQyr-0J-46" value="" style="whiteSpace=wrap;html=1;aspect=fixed;fillColor=#001135;strokeColor=none;connectable=1;allowArrows=1;fontFamily=Manrope;fontSource=https%3A%2F%2Ffonts.googleapis.com%2Fcss%3Ffamily%3DManrope;" parent="mwT0r1Xhh7UKhmQyr-0J-45" vertex="1">
          <mxGeometry width="30" height="30" as="geometry" />
        </mxCell>
        <mxCell id="mwT0r1Xhh7UKhmQyr-0J-47" value="" style="endArrow=open;html=1;edgeStyle=orthogonalEdgeStyle;rounded=0;endFill=0;startSize=6;endSize=2;strokeColor=#FFFFFF;fontFamily=Manrope;fontSource=https%3A%2F%2Ffonts.googleapis.com%2Fcss%3Ffamily%3DManrope;" parent="mwT0r1Xhh7UKhmQyr-0J-45" edge="1">
          <mxGeometry width="50" height="50" relative="1" as="geometry">
            <mxPoint x="3" y="12" as="sourcePoint" />
            <mxPoint x="11" y="3" as="targetPoint" />
            <Array as="points">
              <mxPoint x="11" y="12" />
            </Array>
          </mxGeometry>
        </mxCell>
        <mxCell id="mwT0r1Xhh7UKhmQyr-0J-48" value="" style="endArrow=open;html=1;edgeStyle=orthogonalEdgeStyle;rounded=0;endFill=0;startSize=6;endSize=2;strokeColor=#FFFFFF;fontFamily=Manrope;fontSource=https%3A%2F%2Ffonts.googleapis.com%2Fcss%3Ffamily%3DManrope;" parent="mwT0r1Xhh7UKhmQyr-0J-45" edge="1">
          <mxGeometry width="50" height="50" relative="1" as="geometry">
            <mxPoint x="11" y="27" as="sourcePoint" />
            <mxPoint x="3" y="19" as="targetPoint" />
            <Array as="points">
              <mxPoint x="11" y="19" />
            </Array>
          </mxGeometry>
        </mxCell>
        <mxCell id="mwT0r1Xhh7UKhmQyr-0J-49" value="" style="endArrow=open;html=1;edgeStyle=orthogonalEdgeStyle;rounded=0;endFill=0;startSize=6;endSize=2;strokeColor=#FFFFFF;fontFamily=Manrope;fontSource=https%3A%2F%2Ffonts.googleapis.com%2Fcss%3Ffamily%3DManrope;" parent="mwT0r1Xhh7UKhmQyr-0J-45" edge="1">
          <mxGeometry width="50" height="50" relative="1" as="geometry">
            <mxPoint x="18" y="3" as="sourcePoint" />
            <mxPoint x="27" y="12" as="targetPoint" />
            <Array as="points">
              <mxPoint x="18" y="12" />
            </Array>
          </mxGeometry>
        </mxCell>
        <mxCell id="mwT0r1Xhh7UKhmQyr-0J-50" value="" style="endArrow=open;html=1;edgeStyle=orthogonalEdgeStyle;rounded=0;endFill=0;startSize=6;endSize=2;strokeColor=#FFFFFF;fontFamily=Manrope;fontSource=https%3A%2F%2Ffonts.googleapis.com%2Fcss%3Ffamily%3DManrope;" parent="mwT0r1Xhh7UKhmQyr-0J-45" edge="1">
          <mxGeometry width="50" height="50" relative="1" as="geometry">
            <mxPoint x="27" y="19" as="sourcePoint" />
            <mxPoint x="18" y="27" as="targetPoint" />
            <Array as="points">
              <mxPoint x="18" y="19" />
            </Array>
          </mxGeometry>
        </mxCell>
        <mxCell id="97hnSNOYw0HHCOYGKAI5-5" value="" style="ellipse;whiteSpace=wrap;html=1;" parent="mwT0r1Xhh7UKhmQyr-0J-45" vertex="1">
          <mxGeometry x="13" y="13" width="4" height="4" as="geometry" />
        </mxCell>
        <mxCell id="mwT0r1Xhh7UKhmQyr-0J-57" value="&lt;font&gt;leaf4&lt;br&gt;&lt;font style=&quot;font-size: 8px&quot; color=&quot;#bec8d2&quot;&gt;IXR-D2L&lt;/font&gt;&lt;br&gt;&lt;/font&gt;" style="text;html=1;align=center;verticalAlign=middle;resizable=0;points=[];autosize=1;fontSize=10;fontFamily=Manrope;fontStyle=0;fontColor=#FFFFFF;" parent="mwT0r1Xhh7UKhmQyr-0J-1" vertex="1">
          <mxGeometry x="610.5" y="440" width="47" height="36" as="geometry" />
        </mxCell>
        <mxCell id="mwT0r1Xhh7UKhmQyr-0J-58" style="rounded=0;orthogonalLoop=1;jettySize=auto;html=1;exitX=0.5;exitY=0;exitDx=0;exitDy=0;entryX=0.5;entryY=1;entryDx=0;entryDy=0;startSize=6;endArrow=none;endFill=0;endSize=2;fontFamily=Manrope;fontSize=8;strokeColor=#98A2AE;fontSource=https%3A%2F%2Ffonts.googleapis.com%2Fcss%3Ffamily%3DManrope;opacity=40;" parent="mwT0r1Xhh7UKhmQyr-0J-1" source="mwT0r1Xhh7UKhmQyr-0J-52" target="mwT0r1Xhh7UKhmQyr-0J-34" edge="1">
          <mxGeometry relative="1" as="geometry">
            <mxPoint x="460" y="407" as="sourcePoint" />
            <mxPoint x="556" y="306" as="targetPoint" />
          </mxGeometry>
        </mxCell>
        <mxCell id="mwT0r1Xhh7UKhmQyr-0J-59" style="rounded=0;orthogonalLoop=1;jettySize=auto;html=1;exitX=0.5;exitY=0;exitDx=0;exitDy=0;entryX=0.5;entryY=1;entryDx=0;entryDy=0;startSize=6;endArrow=none;endFill=0;endSize=2;fontFamily=Manrope;fontSize=8;strokeColor=#98A2AE;fontSource=https%3A%2F%2Ffonts.googleapis.com%2Fcss%3Ffamily%3DManrope;opacity=40;" parent="mwT0r1Xhh7UKhmQyr-0J-1" source="mwT0r1Xhh7UKhmQyr-0J-46" target="mwT0r1Xhh7UKhmQyr-0J-34" edge="1">
          <mxGeometry relative="1" as="geometry">
            <mxPoint x="545.5" y="414" as="sourcePoint" />
            <mxPoint x="547.5" y="313" as="targetPoint" />
          </mxGeometry>
        </mxCell>
        <mxCell id="mwT0r1Xhh7UKhmQyr-0J-60" style="rounded=0;orthogonalLoop=1;jettySize=auto;html=1;startSize=6;endArrow=none;endFill=0;endSize=2;fontFamily=Manrope;fontSize=8;strokeColor=#98A2AE;fontSource=https%3A%2F%2Ffonts.googleapis.com%2Fcss%3Ffamily%3DManrope;entryX=0.5;entryY=1;entryDx=0;entryDy=0;exitX=0.5;exitY=0;exitDx=0;exitDy=0;opacity=40;" parent="mwT0r1Xhh7UKhmQyr-0J-1" source="mwT0r1Xhh7UKhmQyr-0J-22" target="mwT0r1Xhh7UKhmQyr-0J-34" edge="1">
          <mxGeometry relative="1" as="geometry">
            <mxPoint x="358" y="391" as="sourcePoint" />
            <mxPoint x="514" y="325" as="targetPoint" />
          </mxGeometry>
        </mxCell>
        <mxCell id="mwT0r1Xhh7UKhmQyr-0J-61" style="rounded=0;orthogonalLoop=1;jettySize=auto;html=1;exitX=0.5;exitY=0;exitDx=0;exitDy=0;entryX=0.5;entryY=1;entryDx=0;entryDy=0;startSize=6;endArrow=none;endFill=0;endSize=2;fontFamily=Manrope;fontSize=8;strokeColor=#98A2AE;fontSource=https%3A%2F%2Ffonts.googleapis.com%2Fcss%3Ffamily%3DManrope;opacity=40;" parent="mwT0r1Xhh7UKhmQyr-0J-1" source="mwT0r1Xhh7UKhmQyr-0J-46" target="mwT0r1Xhh7UKhmQyr-0J-7" edge="1">
          <mxGeometry relative="1" as="geometry">
            <mxPoint x="648.5" y="358" as="sourcePoint" />
            <mxPoint x="648.5" y="257" as="targetPoint" />
          </mxGeometry>
        </mxCell>
        <mxCell id="mwT0r1Xhh7UKhmQyr-0J-62" style="rounded=0;orthogonalLoop=1;jettySize=auto;html=1;exitX=0.5;exitY=0;exitDx=0;exitDy=0;entryX=0.5;entryY=1;entryDx=0;entryDy=0;startSize=6;endArrow=none;endFill=0;endSize=2;fontFamily=Manrope;fontSize=8;strokeColor=#98A2AE;fontSource=https%3A%2F%2Ffonts.googleapis.com%2Fcss%3Ffamily%3DManrope;opacity=40;" parent="mwT0r1Xhh7UKhmQyr-0J-1" source="mwT0r1Xhh7UKhmQyr-0J-52" target="mwT0r1Xhh7UKhmQyr-0J-7" edge="1">
          <mxGeometry relative="1" as="geometry">
            <mxPoint x="487" y="371" as="sourcePoint" />
            <mxPoint x="487" y="270" as="targetPoint" />
          </mxGeometry>
        </mxCell>
        <mxCell id="mwT0r1Xhh7UKhmQyr-0J-65" value="&lt;font face=&quot;Fira Code&quot; data-font-src=&quot;https://fonts.googleapis.com/css?family=Fira+Code&quot;&gt;AS 64321&lt;/font&gt;" style="rounded=0;whiteSpace=wrap;html=1;dashed=1;fillColor=#4D5766;fontFamily=Manrope;fontSource=https%3A%2F%2Ffonts.googleapis.com%2Fcss%3Ffamily%3DManrope;fontSize=8;fontColor=#FFFFFF;strokeColor=none;rotation=-90;spacing=2;" parent="mwT0r1Xhh7UKhmQyr-0J-1" vertex="1">
          <mxGeometry x="437.5" y="412.5" width="28" height="8" as="geometry" />
        </mxCell>
        <mxCell id="mwT0r1Xhh7UKhmQyr-0J-67" value="&lt;font face=&quot;Fira Code&quot; data-font-src=&quot;https://fonts.googleapis.com/css?family=Fira+Code&quot;&gt;AS 64321&lt;/font&gt;" style="rounded=0;whiteSpace=wrap;html=1;dashed=1;fillColor=#4D5766;fontFamily=Manrope;fontSource=https%3A%2F%2Ffonts.googleapis.com%2Fcss%3Ffamily%3DManrope;fontSize=8;fontColor=#FFFFFF;strokeColor=none;rotation=-90;" parent="mwT0r1Xhh7UKhmQyr-0J-1" vertex="1">
          <mxGeometry x="641" y="414" width="33" height="8" as="geometry" />
        </mxCell>
        <mxCell id="mwT0r1Xhh7UKhmQyr-0J-70" style="orthogonalLoop=1;jettySize=auto;html=1;startSize=2;endArrow=blockThin;endFill=1;endSize=2;fontFamily=Manrope;fontSize=8;fontSource=https%3A%2F%2Ffonts.googleapis.com%2Fcss%3Ffamily%3DManrope;startArrow=blockThin;startFill=1;strokeColor=#00C9FF;entryX=1;entryY=0.5;entryDx=0;entryDy=0;exitX=0;exitY=0.5;exitDx=0;exitDy=0;curved=1;" parent="mwT0r1Xhh7UKhmQyr-0J-1" source="97hnSNOYw0HHCOYGKAI5-5" target="97hnSNOYw0HHCOYGKAI5-0" edge="1">
          <mxGeometry relative="1" as="geometry">
            <mxPoint x="601" y="387" as="sourcePoint" />
            <mxPoint x="472" y="323" as="targetPoint" />
            <Array as="points">
              <mxPoint x="536" y="342" />
            </Array>
          </mxGeometry>
        </mxCell>
        <mxCell id="mwT0r1Xhh7UKhmQyr-0J-71" style="orthogonalLoop=1;jettySize=auto;html=1;startSize=2;endArrow=blockThin;endFill=1;endSize=2;fontFamily=Manrope;fontSize=8;fontSource=https%3A%2F%2Ffonts.googleapis.com%2Fcss%3Ffamily%3DManrope;startArrow=blockThin;startFill=1;strokeColor=#00C9FF;entryX=0.5;entryY=1;entryDx=0;entryDy=0;exitX=0.5;exitY=0;exitDx=0;exitDy=0;curved=1;" parent="mwT0r1Xhh7UKhmQyr-0J-1" source="97hnSNOYw0HHCOYGKAI5-4" target="97hnSNOYw0HHCOYGKAI5-6" edge="1">
          <mxGeometry relative="1" as="geometry">
            <mxPoint x="522" y="386" as="sourcePoint" />
            <mxPoint x="523" y="326" as="targetPoint" />
            <Array as="points">
              <mxPoint x="532" y="352" />
            </Array>
          </mxGeometry>
        </mxCell>
        <mxCell id="mwT0r1Xhh7UKhmQyr-0J-72" value="&lt;div style=&quot;font-size: 8px;&quot;&gt;&lt;font style=&quot;font-size: 8px;&quot;&gt;iBGP EVPN&lt;/font&gt;&lt;/div&gt;" style="text;html=1;align=center;verticalAlign=middle;resizable=0;points=[];autosize=1;fontSize=8;fontFamily=Fira Code;fontSource=https%3A%2F%2Ffonts.googleapis.com%2Fcss%3Ffamily%3DFira%2BCode;connectable=0;rotation=0;fillColor=#4D5766;fontColor=#BEC8D2;spacing=-4;" parent="mwT0r1Xhh7UKhmQyr-0J-1" vertex="1">
          <mxGeometry x="615" y="318" width="49" height="10" as="geometry" />
        </mxCell>
        <mxCell id="mwT0r1Xhh7UKhmQyr-0J-73" style="rounded=0;orthogonalLoop=1;jettySize=auto;html=1;startSize=2;endArrow=blockThin;endFill=1;endSize=2;fontFamily=Manrope;fontSize=8;fontSource=https%3A%2F%2Ffonts.googleapis.com%2Fcss%3Ffamily%3DManrope;startArrow=blockThin;startFill=1;strokeColor=#00C9FF;" parent="mwT0r1Xhh7UKhmQyr-0J-1" edge="1">
          <mxGeometry relative="1" as="geometry">
            <mxPoint x="667.25" y="331" as="sourcePoint" />
            <mxPoint x="613" y="331" as="targetPoint" />
          </mxGeometry>
        </mxCell>
        <mxCell id="mwT0r1Xhh7UKhmQyr-0J-74" style="orthogonalLoop=1;jettySize=auto;html=1;exitX=0.5;exitY=0;exitDx=0;exitDy=0;startSize=2;endArrow=blockThin;endFill=1;endSize=2;fontFamily=Manrope;fontSize=8;strokeColor=#00C9FF;fontSource=https%3A%2F%2Ffonts.googleapis.com%2Fcss%3Ffamily%3DManrope;jumpSize=5;movable=1;resizable=1;rotatable=1;deletable=1;editable=1;locked=0;connectable=1;startArrow=blockThin;startFill=1;entryX=1;entryY=1;entryDx=0;entryDy=0;curved=1;" parent="mwT0r1Xhh7UKhmQyr-0J-1" source="97hnSNOYw0HHCOYGKAI5-5" target="97hnSNOYw0HHCOYGKAI5-6" edge="1">
          <mxGeometry relative="1" as="geometry">
            <mxPoint x="609.5" y="380" as="sourcePoint" />
            <mxPoint x="551.5" y="326.5" as="targetPoint" />
            <Array as="points">
              <mxPoint x="591" y="345" />
            </Array>
          </mxGeometry>
        </mxCell>
        <mxCell id="mwT0r1Xhh7UKhmQyr-0J-78" style="orthogonalLoop=1;jettySize=auto;html=1;startSize=2;endArrow=blockThin;endFill=1;endSize=2;fontFamily=Manrope;fontSize=8;fontSource=https%3A%2F%2Ffonts.googleapis.com%2Fcss%3Ffamily%3DManrope;startArrow=blockThin;startFill=1;strokeColor=#00C9FF;exitX=1;exitY=0;exitDx=0;exitDy=0;entryX=0.5;entryY=1;entryDx=0;entryDy=0;curved=1;" parent="mwT0r1Xhh7UKhmQyr-0J-1" source="97hnSNOYw0HHCOYGKAI5-3" target="97hnSNOYw0HHCOYGKAI5-6" edge="1">
          <mxGeometry relative="1" as="geometry">
            <mxPoint x="443" y="387.5" as="sourcePoint" />
            <mxPoint x="500" y="327" as="targetPoint" />
            <Array as="points">
              <mxPoint x="466" y="347" />
            </Array>
          </mxGeometry>
        </mxCell>
        <mxCell id="mwT0r1Xhh7UKhmQyr-0J-80" style="orthogonalLoop=1;jettySize=auto;html=1;startSize=2;endArrow=blockThin;endFill=1;endSize=2;fontFamily=Manrope;fontSize=8;fontSource=https%3A%2F%2Ffonts.googleapis.com%2Fcss%3Ffamily%3DManrope;startArrow=blockThin;startFill=1;strokeColor=#00C9FF;entryX=1;entryY=1;entryDx=0;entryDy=0;exitX=0;exitY=0;exitDx=0;exitDy=0;curved=1;" parent="mwT0r1Xhh7UKhmQyr-0J-1" source="97hnSNOYw0HHCOYGKAI5-4" target="97hnSNOYw0HHCOYGKAI5-0" edge="1">
          <mxGeometry relative="1" as="geometry">
            <mxPoint x="504" y="384" as="sourcePoint" />
            <mxPoint x="450" y="326.5" as="targetPoint" />
            <Array as="points">
              <mxPoint x="484" y="348" />
            </Array>
          </mxGeometry>
        </mxCell>
        <mxCell id="mwT0r1Xhh7UKhmQyr-0J-82" style="orthogonalLoop=1;jettySize=auto;html=1;startSize=2;endArrow=blockThin;endFill=1;endSize=2;fontFamily=Manrope;fontSize=8;fontSource=https%3A%2F%2Ffonts.googleapis.com%2Fcss%3Ffamily%3DManrope;startArrow=blockThin;startFill=1;strokeColor=#00C9FF;entryX=0.5;entryY=0;entryDx=0;entryDy=0;exitX=0;exitY=1;exitDx=0;exitDy=0;curved=1;" parent="mwT0r1Xhh7UKhmQyr-0J-1" source="97hnSNOYw0HHCOYGKAI5-6" target="97hnSNOYw0HHCOYGKAI5-1" edge="1">
          <mxGeometry relative="1" as="geometry">
            <mxPoint x="482" y="323" as="sourcePoint" />
            <mxPoint x="351" y="386" as="targetPoint" />
            <Array as="points">
              <mxPoint x="415" y="344" />
            </Array>
          </mxGeometry>
        </mxCell>
        <mxCell id="mwT0r1Xhh7UKhmQyr-0J-84" style="orthogonalLoop=1;jettySize=auto;html=1;startSize=2;endArrow=blockThin;endFill=1;endSize=2;fontFamily=Manrope;fontSize=8;fontSource=https%3A%2F%2Ffonts.googleapis.com%2Fcss%3Ffamily%3DManrope;startArrow=blockThin;startFill=1;strokeColor=#00C9FF;entryX=0.5;entryY=1;entryDx=0;entryDy=0;exitX=0.5;exitY=0;exitDx=0;exitDy=0;curved=1;" parent="mwT0r1Xhh7UKhmQyr-0J-1" source="97hnSNOYw0HHCOYGKAI5-3" target="97hnSNOYw0HHCOYGKAI5-0" edge="1">
          <mxGeometry relative="1" as="geometry">
            <mxPoint x="417" y="375" as="sourcePoint" />
            <mxPoint x="428.5" y="325" as="targetPoint" />
            <Array as="points">
              <mxPoint x="418" y="353" />
            </Array>
          </mxGeometry>
        </mxCell>
        <mxCell id="mwT0r1Xhh7UKhmQyr-0J-86" style="orthogonalLoop=1;jettySize=auto;html=1;startSize=2;endArrow=blockThin;endFill=1;endSize=2;fontFamily=Manrope;fontSize=8;fontSource=https%3A%2F%2Ffonts.googleapis.com%2Fcss%3Ffamily%3DManrope;startArrow=blockThin;startFill=1;strokeColor=#00C9FF;exitX=0;exitY=1;exitDx=0;exitDy=0;entryX=0.5;entryY=0;entryDx=0;entryDy=0;curved=1;" parent="mwT0r1Xhh7UKhmQyr-0J-1" source="97hnSNOYw0HHCOYGKAI5-0" target="97hnSNOYw0HHCOYGKAI5-1" edge="1">
          <mxGeometry relative="1" as="geometry">
            <mxPoint x="402" y="326" as="sourcePoint" />
            <mxPoint x="337" y="385" as="targetPoint" />
            <Array as="points">
              <mxPoint x="361" y="345" />
            </Array>
          </mxGeometry>
        </mxCell>
        <mxCell id="az9jWD47MuSG-nGl6Qiq-0" value="RR" style="rounded=1;whiteSpace=wrap;html=1;fillColor=#FFFB00;strokeColor=none;fontFamily=Google Sans;fontSource=https%3A%2F%2Ffonts.googleapis.com%2Fcss%3Ffamily%3DGoogle%2BSans;fontSize=9;fontColor=#4D5766;" vertex="1" parent="mwT0r1Xhh7UKhmQyr-0J-1">
          <mxGeometry x="374.75" y="301" width="17.5" height="9" as="geometry" />
        </mxCell>
        <mxCell id="az9jWD47MuSG-nGl6Qiq-1" value="RR" style="rounded=1;whiteSpace=wrap;html=1;fillColor=#FFFB00;strokeColor=none;fontFamily=Google Sans;fontSource=https%3A%2F%2Ffonts.googleapis.com%2Fcss%3Ffamily%3DGoogle%2BSans;fontSize=9;fontColor=#4D5766;" vertex="1" parent="mwT0r1Xhh7UKhmQyr-0J-1">
          <mxGeometry x="571.75" y="301" width="17.5" height="9" as="geometry" />
        </mxCell>
      </root>
    </mxGraphModel>
  </diagram>
</mxfile>
